<svg width="24" height="24" viewBox="0 0 24 24" fill="none" xmlns="http://www.w3.org/2000/svg">
<path d="M10.26 15.7325V5.93803L13.75 8.26761V18.0621L10.26 15.7325Z" fill="#363CD5" stroke="#363CD5"/>
<path d="M3.72447 8.62798L3.72448 8.62799L3.72778 8.62579L7.75 5.93833V15.6924L4.27499 18.0025C4.27477 18.0026 4.27454 18.0028 4.27432 18.0029C4.19927 18.0522 4.11235 18.0803 4.02267 18.0844C3.93272 18.0885 3.84333 18.0682 3.76395 18.0257C3.68458 17.9832 3.61815 17.92 3.57169 17.8429C3.52541 17.7661 3.50065 17.6782 3.5 17.5885V9.01349C3.50491 8.93788 3.52695 8.86433 3.56449 8.79843C3.6036 8.72977 3.65843 8.67135 3.72447 8.62798Z" fill="#363CD5" stroke="#363CD5"/>
<path d="M20.2755 15.372L20.2755 15.372L20.2722 15.3742L16.25 18.0617V8.26764L19.7258 5.95706C19.8008 5.90783 19.8877 5.87971 19.9773 5.87564C20.0673 5.87155 20.1567 5.89183 20.236 5.93434C20.3154 5.97685 20.3819 6.04 20.4283 6.11713C20.4746 6.19395 20.4993 6.2818 20.5 6.37147V14.9865C20.4951 15.0621 20.4731 15.1357 20.4355 15.2016C20.3964 15.2702 20.3416 15.3287 20.2755 15.372Z" fill="#363CD5" stroke="#363CD5"/>
</svg>
