<svg width="24" height="24" viewBox="0 0 24 24" fill="none" xmlns="http://www.w3.org/2000/svg">
<path d="M13.75 9.44027H17.37L12.92 5.00028C12.906 4.98657 12.8883 4.97727 12.8691 4.97353C12.8499 4.96978 12.83 4.97176 12.8119 4.97921C12.7938 4.98666 12.7783 4.99927 12.7673 5.01545C12.7563 5.03164 12.7503 5.0507 12.75 5.07028V8.44027C12.75 8.70549 12.8554 8.95985 13.0429 9.14738C13.2304 9.33492 13.4848 9.44027 13.75 9.44027Z" fill="#D1D5DB"/>
<path d="M17.2201 10.9405H12.9001C12.4625 10.9405 12.0428 10.7667 11.7334 10.4573C11.4239 10.1478 11.2501 9.72813 11.2501 9.29053V5.00053C11.2515 4.97343 11.2473 4.94635 11.2378 4.92092C11.2284 4.89548 11.2139 4.87224 11.1952 4.8526C11.1765 4.83295 11.154 4.81732 11.129 4.80665C11.1041 4.79598 11.0772 4.79049 11.0501 4.79053H9.2901C8.57481 4.79051 7.88853 5.07328 7.38087 5.57718C6.87322 6.08109 6.58538 6.76526 6.5801 7.48053V16.4805C6.57878 16.8372 6.6479 17.1907 6.78351 17.5207C6.91911 17.8506 7.11852 18.1505 7.37029 18.4033C7.62207 18.656 7.92126 18.8565 8.25071 18.9933C8.58016 19.1301 8.93337 19.2005 9.2901 19.2005H14.7101C15.0668 19.2005 15.42 19.1301 15.7495 18.9933C16.0789 18.8565 16.3781 18.656 16.6299 18.4033C16.8817 18.1505 17.0811 17.8506 17.2167 17.5207C17.3523 17.1907 17.4214 16.8372 17.4201 16.4805V11.1405C17.4177 11.0883 17.3958 11.0388 17.3588 11.0018C17.3218 10.9648 17.2724 10.943 17.2201 10.9405Z" fill="#D1D5DB"/>
</svg>
