<svg width="24" height="24" viewBox="0 0 24 24" fill="none" xmlns="http://www.w3.org/2000/svg">
<path d="M8.8999 4.5H5.8999C5.07148 4.5 4.3999 5.17157 4.3999 6V9C4.3999 9.82843 5.07148 10.5 5.8999 10.5H8.8999C9.72833 10.5 10.3999 9.82843 10.3999 9V6C10.3999 5.17157 9.72833 4.5 8.8999 4.5Z" stroke="#000D26" stroke-width="1.5" stroke-linecap="round" stroke-linejoin="round"/>
<path d="M10.3999 16.5C10.3999 14.8431 9.05676 13.5 7.3999 13.5C5.74305 13.5 4.3999 14.8431 4.3999 16.5C4.3999 18.1569 5.74305 19.5 7.3999 19.5C9.05676 19.5 10.3999 18.1569 10.3999 16.5Z" stroke="#000D26" stroke-width="1.5" stroke-linecap="round" stroke-linejoin="round"/>
<path d="M17.8999 13.5H14.8999C14.0715 13.5 13.3999 14.1716 13.3999 15V18C13.3999 18.8284 14.0715 19.5 14.8999 19.5H17.8999C18.7283 19.5 19.3999 18.8284 19.3999 18V15C19.3999 14.1716 18.7283 13.5 17.8999 13.5Z" stroke="#000D26" stroke-width="1.5" stroke-linecap="round" stroke-linejoin="round"/>
<path d="M16.4999 4.64L13.3999 10H19.5999L16.4999 4.64Z" stroke="#000D26" stroke-width="1.5" stroke-linecap="round" stroke-linejoin="round"/>
</svg>
