<svg width="24" height="24" viewBox="0 0 24 24" fill="none" xmlns="http://www.w3.org/2000/svg">
<path d="M13.22 10.76C12.6896 10.76 12.1809 10.5493 11.8058 10.1742C11.4307 9.79914 11.22 9.29043 11.22 8.76V4H9C8.20435 4 7.44129 4.31607 6.87868 4.87868C6.31607 5.44129 6 6.20435 6 7V17C6 17.7956 6.31607 18.5587 6.87868 19.1213C7.44129 19.6839 8.20435 20 9 20H15C15.7956 20 16.5587 19.6839 17.1213 19.1213C17.6839 18.5587 18 17.7956 18 17V10.76H13.22ZM9.5 13.26H12.5C12.6989 13.26 12.8897 13.339 13.0303 13.4797C13.171 13.6203 13.25 13.8111 13.25 14.01C13.25 14.2089 13.171 14.3997 13.0303 14.5403C12.8897 14.681 12.6989 14.76 12.5 14.76H9.5C9.30109 14.76 9.11032 14.681 8.96967 14.5403C8.82902 14.3997 8.75 14.2089 8.75 14.01C8.75 13.8111 8.82902 13.6203 8.96967 13.4797C9.11032 13.339 9.30109 13.26 9.5 13.26ZM14.5 17.76H9.5C9.30109 17.76 9.11032 17.681 8.96967 17.5403C8.82902 17.3997 8.75 17.2089 8.75 17.01C8.75 16.8111 8.82902 16.6203 8.96967 16.4797C9.11032 16.339 9.30109 16.26 9.5 16.26H14.5C14.6989 16.26 14.8897 16.339 15.0303 16.4797C15.171 16.6203 15.25 16.8111 15.25 17.01C15.25 17.2089 15.171 17.3997 15.0303 17.5403C14.8897 17.681 14.6989 17.76 14.5 17.76Z" fill="#363CD5"/>
<path d="M13.92 9.26005H17.74C17.7624 9.25834 17.7838 9.2504 17.8019 9.23713C17.82 9.22386 17.834 9.20579 17.8423 9.18496C17.8507 9.16414 17.853 9.1414 17.8491 9.11932C17.8451 9.09724 17.8351 9.07671 17.82 9.06005L13 4.19005C12.9834 4.17503 12.9629 4.16498 12.9408 4.16105C12.9187 4.15711 12.896 4.15943 12.8751 4.16776C12.8543 4.17609 12.8362 4.19009 12.823 4.20817C12.8097 4.22625 12.8018 4.24769 12.8 4.27005V8.09005C12.7998 8.39188 12.9162 8.68214 13.1249 8.90018C13.3336 9.11821 13.6185 9.24715 13.92 9.26005Z" fill="#363CD5"/>
</svg>
