<svg width="24" height="24" viewBox="0 0 24 24" fill="none" xmlns="http://www.w3.org/2000/svg">
<path d="M16.2199 12.89L8.67993 16.66C8.49242 16.7529 8.28049 16.7846 8.074 16.7507C7.8675 16.7168 7.67684 16.619 7.52887 16.471C7.38091 16.323 7.28308 16.1324 7.24919 15.9259C7.21529 15.7194 7.24703 15.5075 7.33993 15.32L8.33993 13.32C8.42303 13.155 8.55017 13.0164 8.70726 12.9193C8.86435 12.8222 9.04526 12.7705 9.22993 12.77H10.9999C11.0992 12.7727 11.1979 12.7552 11.2902 12.7185C11.3824 12.6818 11.4662 12.6266 11.5364 12.5564C11.6066 12.4862 11.6617 12.4024 11.6985 12.3102C11.7352 12.218 11.7527 12.1192 11.7499 12.02C11.7473 11.8218 11.6675 11.6326 11.5274 11.4925C11.3873 11.3524 11.198 11.2725 10.9999 11.27H9.23993C9.05526 11.2694 8.87435 11.2177 8.71726 11.1206C8.56017 11.0235 8.43303 10.8849 8.34993 10.72L7.34993 8.71995C7.24405 8.53244 7.20153 8.31576 7.22869 8.10214C7.25585 7.88852 7.35124 7.68938 7.50067 7.53433C7.65011 7.37928 7.8456 7.27661 8.05807 7.24159C8.27054 7.20656 8.48864 7.24106 8.67993 7.33995L16.2199 11.11C16.3837 11.1939 16.5212 11.3214 16.6172 11.4784C16.7132 11.6354 16.764 11.8159 16.764 12C16.764 12.184 16.7132 12.3645 16.6172 12.5215C16.5212 12.6785 16.3837 12.806 16.2199 12.89Z" fill="#000D26"/>
</svg>
