<svg width="24" height="24" viewBox="0 0 24 24" fill="none" xmlns="http://www.w3.org/2000/svg">
<path d="M6.24 20.4869V5.74769C6.24 4.85656 6.53079 4.00194 7.04838 3.37181C7.56598 2.74169 8.268 2.3877 9 2.3877H14.52C15.252 2.3877 15.954 2.74169 16.4716 3.37181C16.9892 4.00194 17.28 4.85656 17.28 5.74769V20.4869C17.2808 20.6895 17.2364 20.8886 17.1516 21.063C17.0668 21.2373 16.9447 21.3804 16.7983 21.477C16.652 21.5735 16.4869 21.6199 16.3206 21.6113C16.1543 21.6026 15.993 21.5391 15.854 21.4277L11.76 18.0677L7.666 21.4277C7.52698 21.5391 7.36573 21.6026 7.19942 21.6113C7.03311 21.6199 6.86799 21.5735 6.72164 21.477C6.57529 21.3804 6.4532 21.2373 6.36838 21.063C6.28357 20.8886 6.23919 20.6895 6.24 20.4869Z" fill="#6B7280"/>
</svg>
