<svg width="20" height="20" viewBox="0 0 20 20" fill="none" xmlns="http://www.w3.org/2000/svg">
<path d="M11.3462 8.40371V7.63392C11.73 7.40877 12.141 7.23992 12.5791 7.12734C13.0172 7.01477 13.4669 6.95848 13.9284 6.95848C14.1922 6.95848 14.4455 6.97807 14.6884 7.01725C14.9307 7.05698 15.1812 7.11272 15.4398 7.18446V7.93604C15.1903 7.84389 14.9474 7.77988 14.7112 7.74401C14.4741 7.70869 14.2131 7.69103 13.9284 7.69103C13.4665 7.69103 13.016 7.75118 12.5769 7.87148C12.1369 7.99178 11.7265 8.16919 11.3455 8.40371M11.3455 12.9248V12.1219C11.7112 11.8973 12.12 11.7287 12.5719 11.6162C13.0238 11.5036 13.476 11.4473 13.9284 11.4473C14.1922 11.4473 14.4455 11.4672 14.6884 11.5069C14.9307 11.5455 15.1812 11.601 15.4398 11.6733V12.4249C15.1903 12.3327 14.9474 12.2687 14.7112 12.2328C14.4741 12.1975 14.2131 12.1799 13.9284 12.1799C13.4665 12.1799 13.016 12.2447 12.5769 12.3744C12.1369 12.5035 11.7265 12.687 11.3455 12.9248ZM11.3455 10.68V9.87791C11.7293 9.65277 12.1403 9.48419 12.5784 9.37217C13.0165 9.26015 13.4665 9.20386 13.9284 9.20331C14.1922 9.20331 14.4453 9.22262 14.6876 9.26125C14.9305 9.30098 15.181 9.35699 15.4391 9.42928V10.1809C15.19 10.0882 14.9472 10.0241 14.7105 9.98883C14.4738 9.95296 14.2131 9.93503 13.9284 9.93503C13.4665 9.93503 13.016 10.0007 12.5769 10.132C12.1369 10.2628 11.7265 10.4455 11.3455 10.68ZM6.07122 13.7393C6.69503 13.7393 7.30146 13.8224 7.8905 13.9885C8.47955 14.1546 9.0636 14.425 9.64265 14.7996V6.67871C9.12693 6.25215 8.55884 5.93209 7.93836 5.71853C7.31693 5.50553 6.69455 5.39903 6.07122 5.39903C5.64265 5.39903 5.26741 5.42855 4.9455 5.48759C4.6236 5.54664 4.26622 5.657 3.87336 5.81869C3.76384 5.86118 3.68598 5.92243 3.63979 6.00245C3.59408 6.08191 3.57122 6.16937 3.57122 6.26484V13.7269C3.57122 13.8759 3.61693 13.9846 3.70836 14.053C3.79979 14.1214 3.9005 14.1297 4.0105 14.0779C4.27146 13.9758 4.57312 13.8938 4.9155 13.832C5.25789 13.7702 5.64312 13.7388 6.07122 13.7393ZM10.3569 14.7996C10.936 14.4255 11.52 14.1551 12.1091 13.9885C12.6981 13.8218 13.3046 13.739 13.9284 13.7401C14.3569 13.7401 14.7422 13.7708 15.0841 13.832C15.426 13.8933 15.7276 13.9749 15.9891 14.077C16.0986 14.13 16.1993 14.122 16.2912 14.053C16.3831 13.984 16.4288 13.8753 16.4284 13.7269V6.26484C16.4284 6.16937 16.4055 6.08439 16.3598 6.0099C16.3141 5.93595 16.2362 5.87249 16.1262 5.81952C15.7334 5.65783 15.376 5.54747 15.0541 5.48842C14.7322 5.42938 14.3569 5.3993 13.9284 5.3982C13.3046 5.3982 12.6824 5.5047 12.0619 5.71771C11.441 5.93126 10.8726 6.25132 10.3569 6.67788V14.7996ZM9.99979 15.9999C9.41884 15.5396 8.79503 15.1859 8.12836 14.9387C7.4617 14.6915 6.77598 14.5679 6.07122 14.5679C5.69979 14.5679 5.33455 14.6037 4.9755 14.6755C4.61693 14.7478 4.26789 14.8637 3.92836 15.0231C3.66931 15.1429 3.42598 15.1067 3.19836 14.9147C2.97074 14.7227 2.85693 14.4572 2.85693 14.1184V6.11833C2.85693 5.9136 2.90336 5.7235 2.99622 5.54802C3.08908 5.37254 3.21931 5.25059 3.38693 5.18216C3.80646 4.96805 4.24289 4.81271 4.69622 4.71614C5.14955 4.61957 5.60789 4.57129 6.07122 4.57129C6.77122 4.57129 7.4536 4.688 8.11836 4.92142C8.78408 5.15484 9.41122 5.49422 9.99979 5.93954C10.5888 5.49422 11.216 5.15484 11.8812 4.92142C12.5465 4.688 13.2288 4.57129 13.9284 4.57129C14.3917 4.57129 14.85 4.61957 15.3034 4.71614C15.7567 4.81271 16.1931 4.96805 16.6126 5.18216C16.7803 5.25114 16.9105 5.37309 17.0034 5.54802C17.0962 5.72295 17.1426 5.91305 17.1426 6.11833V14.1184C17.1426 14.4572 17.0198 14.7174 16.7741 14.899C16.5279 15.08 16.266 15.1106 15.9884 14.9908C15.6584 14.8419 15.3207 14.7343 14.9755 14.668C14.6307 14.6013 14.2817 14.5679 13.9284 14.5679C13.2236 14.5679 12.5379 14.6915 11.8712 14.9387C11.2046 15.1859 10.5807 15.5396 9.99979 15.9999Z" fill="white"/>
</svg>
