<svg width="20" height="20" viewBox="0 0 20 20" fill="none" xmlns="http://www.w3.org/2000/svg">
<path d="M16.1581 10.8334C15.9909 11.6957 15.6443 12.5132 15.1407 13.2329C14.6372 13.9526 13.988 14.5584 13.2352 15.011C12.4824 15.4636 11.6429 15.7529 10.7712 15.8601C9.89938 15.9673 9.0148 15.8901 8.17479 15.6334C8.00249 15.571 7.81376 15.571 7.64146 15.6334L5.55812 16.6668C5.49479 16.6982 5.42373 16.7106 5.3535 16.7026C5.28327 16.6945 5.21685 16.6664 5.16226 16.6215C5.10766 16.5765 5.06721 16.5168 5.04578 16.4494C5.02435 16.3821 5.02285 16.31 5.04146 16.2418L5.48312 14.4584C5.50939 14.3401 5.50723 14.2172 5.47681 14.0999C5.44639 13.9825 5.38858 13.8741 5.30812 13.7834C4.59968 12.9865 4.10631 12.0219 3.87471 10.9811C3.6431 9.94023 3.68092 8.8575 3.98458 7.83534C4.28824 6.81318 4.8477 5.88541 5.61001 5.13983C6.37233 4.39425 7.31228 3.85552 8.34093 3.57462C9.36957 3.29372 10.4529 3.27995 11.4883 3.5346C12.5238 3.78925 13.4771 4.3039 14.2582 5.02986C15.0392 5.75581 15.6221 6.66905 15.9516 7.68316C16.2812 8.69726 16.3465 9.77869 16.1415 10.8251L16.1581 10.8334Z" stroke="#363CD5" stroke-width="1.25" stroke-linecap="round" stroke-linejoin="round"/>
<path d="M7.5 9.57495V9.58328" stroke="#363CD5" stroke-width="1.66667" stroke-linecap="round" stroke-linejoin="round"/>
<path d="M10 9.57495V9.58328" stroke="#363CD5" stroke-width="1.66667" stroke-linecap="round" stroke-linejoin="round"/>
<path d="M12.5 9.57495V9.58328" stroke="#363CD5" stroke-width="1.66667" stroke-linecap="round" stroke-linejoin="round"/>
</svg>
