<svg width="20" height="20" viewBox="0 0 20 20" fill="none" xmlns="http://www.w3.org/2000/svg">
<path d="M11.1252 4.38334L12.1835 6.54167C12.2733 6.72338 12.406 6.88053 12.57 6.99958C12.7341 7.11862 12.9246 7.19598 13.1252 7.225L15.5002 7.56667C15.7312 7.60021 15.9481 7.69774 16.1266 7.84824C16.305 7.99873 16.4377 8.19616 16.5096 8.41818C16.5816 8.6402 16.59 8.87794 16.5339 9.10448C16.4777 9.33103 16.3592 9.53732 16.1919 9.7L14.4752 11.3667C14.3255 11.5105 14.2142 11.6897 14.1516 11.8877C14.089 12.0857 14.0771 12.2962 14.1169 12.5L14.5169 14.8667C14.5553 15.0958 14.5292 15.331 14.4415 15.5461C14.3537 15.7612 14.2077 15.9475 14.0199 16.0843C13.8321 16.221 13.6099 16.3027 13.3783 16.3202C13.1467 16.3377 12.9147 16.2903 12.7085 16.1833L10.5835 15.05C10.4035 14.9558 10.2034 14.9066 10.0002 14.9066C9.79703 14.9066 9.59688 14.9558 9.41686 15.05L7.29186 16.1667C7.08566 16.2736 6.85373 16.321 6.6221 16.3035C6.39046 16.286 6.16828 16.2043 5.98049 16.0676C5.7927 15.9309 5.64672 15.7445 5.55894 15.5294C5.47116 15.3144 5.44505 15.0791 5.48353 14.85L5.88353 12.5C5.91899 12.3 5.90487 12.0944 5.84239 11.9012C5.77992 11.708 5.67101 11.533 5.5252 11.3917L3.80853 9.725C3.63365 9.56345 3.50854 9.35531 3.44793 9.12508C3.38731 8.89484 3.39371 8.65208 3.46637 8.42536C3.53902 8.19864 3.67492 7.99738 3.85806 7.84526C4.04121 7.69314 4.26399 7.59649 4.5002 7.56667L6.8752 7.225C7.0758 7.19598 7.26633 7.11862 7.43038 6.99958C7.59443 6.88053 7.72707 6.72338 7.81686 6.54167L8.8752 4.38334C8.9798 4.17458 9.14043 3.99904 9.33912 3.87637C9.5378 3.75369 9.7667 3.68872 10.0002 3.68872C10.2337 3.68872 10.4626 3.75369 10.6613 3.87637C10.86 3.99904 11.0206 4.17458 11.1252 4.38334Z" fill="#363CD5"/>
</svg>
