<svg width="20" height="21" viewBox="0 0 20 21" fill="none" xmlns="http://www.w3.org/2000/svg">
<g opacity="0.65">
<path d="M11.1252 4.88309L12.1835 7.04143C12.2733 7.22314 12.406 7.38029 12.57 7.49933C12.7341 7.61837 12.9246 7.69574 13.1252 7.72476L15.5002 8.06643C15.7312 8.09996 15.9481 8.1975 16.1266 8.34799C16.305 8.49848 16.4377 8.69591 16.5096 8.91794C16.5816 9.13996 16.59 9.3777 16.5339 9.60424C16.4777 9.83078 16.3592 10.0371 16.1919 10.1998L14.4752 11.8664C14.3255 12.0103 14.2142 12.1894 14.1516 12.3874C14.089 12.5854 14.0771 12.796 14.1169 12.9998L14.5169 15.3664C14.5553 15.5955 14.5292 15.8308 14.4415 16.0459C14.3537 16.2609 14.2077 16.4473 14.0199 16.584C13.8321 16.7208 13.6099 16.8025 13.3783 16.82C13.1467 16.8375 12.9147 16.7901 12.7085 16.6831L10.5835 15.5498C10.4035 15.4556 10.2034 15.4064 10.0002 15.4064C9.79703 15.4064 9.59688 15.4556 9.41686 15.5498L7.29186 16.6664C7.08566 16.7734 6.85373 16.8208 6.6221 16.8033C6.39046 16.7858 6.16828 16.7041 5.98049 16.5674C5.7927 16.4306 5.64672 16.2443 5.55894 16.0292C5.47116 15.8141 5.44505 15.5788 5.48353 15.3498L5.88353 12.9998C5.91899 12.7998 5.90487 12.5942 5.84239 12.401C5.77992 12.2077 5.67101 12.0328 5.5252 11.8914L3.80853 10.2248C3.63365 10.0632 3.50854 9.85507 3.44793 9.62483C3.38731 9.3946 3.39371 9.15184 3.46637 8.92511C3.53902 8.69839 3.67492 8.49713 3.85806 8.34501C4.04121 8.19289 4.26399 8.09624 4.5002 8.06643L6.8752 7.72476C7.0758 7.69574 7.26633 7.61837 7.43038 7.49933C7.59443 7.38029 7.72707 7.22314 7.81686 7.04143L8.8752 4.88309C8.9798 4.67433 9.14043 4.4988 9.33912 4.37612C9.5378 4.25345 9.7667 4.18848 10.0002 4.18848C10.2337 4.18848 10.4626 4.25345 10.6613 4.37612C10.86 4.4988 11.0206 4.67433 11.1252 4.88309Z" stroke="#363CD5" stroke-width="1.5" stroke-miterlimit="10"/>
</g>
</svg>
