<svg width="24" height="24" viewBox="0 0 24 24" fill="none" xmlns="http://www.w3.org/2000/svg">
<path d="M21.42 9.65002L13 4.00002C12.7065 3.79569 12.3575 3.68616 12 3.68616C11.6424 3.68616 11.2934 3.79569 11 4.00002L2.57997 9.65002C2.4267 9.76078 2.32094 9.92536 2.28385 10.1108C2.24677 10.2962 2.2811 10.4888 2.37997 10.65C2.48769 10.8069 2.65169 10.9162 2.83791 10.9553C3.02413 10.9944 3.21826 10.9603 3.37997 10.86L4.37997 10.16V17.23C4.37997 18.0257 4.69604 18.7887 5.25865 19.3513C5.82126 19.9139 6.58432 20.23 7.37997 20.23H9.07997C9.18503 20.23 9.28906 20.2093 9.38612 20.1691C9.48318 20.1289 9.57137 20.07 9.64566 19.9957C9.71994 19.9214 9.77887 19.8332 9.81907 19.7362C9.85928 19.6391 9.87997 19.5351 9.87997 19.43V15.23C9.87997 14.9648 9.98533 14.7104 10.1729 14.5229C10.3604 14.3354 10.6148 14.23 10.88 14.23H12.88C13.1452 14.23 13.3995 14.3354 13.5871 14.5229C13.7746 14.7104 13.88 14.9648 13.88 15.23V19.43C13.88 19.6422 13.9643 19.8457 14.1143 19.9957C14.2643 20.1457 14.4678 20.23 14.68 20.23H16.38C17.1756 20.23 17.9387 19.9139 18.5013 19.3513C19.0639 18.7887 19.38 18.0257 19.38 17.23V10.16L20.49 10.9C20.6449 10.9871 20.8236 11.0221 21 11C21.1235 10.9996 21.2449 10.9682 21.3532 10.9089C21.4615 10.8495 21.5532 10.7639 21.62 10.66C21.7218 10.4979 21.7578 10.3031 21.7207 10.1153C21.6835 9.9275 21.5759 9.76105 21.42 9.65002Z" fill="#363CD5"/>
</svg>
