<svg width="25" height="24" viewBox="0 0 25 24" fill="none" xmlns="http://www.w3.org/2000/svg">
<path d="M23.001 12.2332C23.001 11.3699 22.9296 10.7399 22.7748 10.0865H12.7153V13.9832H18.62C18.501 14.9515 17.8582 16.4099 16.4296 17.3898L16.4096 17.5203L19.5902 19.935L19.8106 19.9565C21.8343 18.1249 23.001 15.4298 23.001 12.2332Z" fill="#4285F4"/>
<path d="M12.7145 22.5C15.6073 22.5 18.0358 21.5666 19.8097 19.9566L16.4287 17.3898C15.524 18.0082 14.3097 18.4399 12.7145 18.4399C9.88118 18.4399 7.47645 16.6082 6.61922 14.0765L6.49358 14.087L3.18632 16.5954L3.14307 16.7132C4.90495 20.1432 8.52399 22.5 12.7145 22.5Z" fill="#34A853"/>
<path d="M6.61997 14.0766C6.39379 13.4233 6.26289 12.7232 6.26289 11.9999C6.26289 11.2765 6.39379 10.5766 6.60807 9.92325L6.60208 9.78411L3.25337 7.23547L3.1438 7.28655C2.41765 8.7099 2.00098 10.3083 2.00098 11.9999C2.00098 13.6916 2.41765 15.2899 3.1438 16.7132L6.61997 14.0766Z" fill="#FBBC05"/>
<path d="M12.7145 5.55997C14.7264 5.55997 16.0835 6.41163 16.8574 7.12335L19.8812 4.23C18.0241 2.53834 15.6074 1.5 12.7145 1.5C8.52402 1.5 4.90496 3.85665 3.14307 7.28662L6.60734 9.92332C7.47647 7.39166 9.88122 5.55997 12.7145 5.55997Z" fill="#EB4335"/>
</svg>
