<svg width="24" height="24" viewBox="0 0 24 24" fill="none" xmlns="http://www.w3.org/2000/svg">
<path d="M3.44989 8.20004L8.44989 4.87004C8.61317 4.76251 8.80438 4.7052 8.99989 4.7052C9.19539 4.7052 9.38661 4.76251 9.54989 4.87004L14.4499 8.13004C14.6132 8.23756 14.8044 8.29487 14.9999 8.29487C15.1954 8.29487 15.3866 8.23756 15.5499 8.13004L19.4499 5.54004C19.6003 5.44099 19.7746 5.38439 19.9545 5.37622C20.1344 5.36805 20.3132 5.40862 20.472 5.49363C20.6307 5.57864 20.7636 5.70494 20.8565 5.8592C20.9494 6.01346 20.999 6.18995 20.9999 6.37004V15C21.0007 15.1664 20.96 15.3304 20.8814 15.4771C20.8028 15.6238 20.6889 15.7485 20.5499 15.84L15.5499 19.17C15.3866 19.2776 15.1954 19.3349 14.9999 19.3349C14.8044 19.3349 14.6132 19.2776 14.4499 19.17L9.54989 15.91C9.38661 15.8025 9.19539 15.7452 8.99989 15.7452C8.80438 15.7452 8.61317 15.8025 8.44989 15.91L4.54989 18.5C4.39665 18.6011 4.21854 18.6581 4.03508 18.6646C3.85162 18.6712 3.66989 18.6272 3.50981 18.5373C3.34972 18.4475 3.21746 18.3153 3.12752 18.1552C3.03758 17.9952 2.99342 17.8135 2.99989 17.63V9.00004C3.00557 8.84045 3.04939 8.68454 3.12768 8.54536C3.20597 8.40617 3.31645 8.28776 3.44989 8.20004Z" stroke="#D1D5DB" stroke-width="1.5" stroke-linecap="round" stroke-linejoin="round"/>
<path d="M9 4.69995V15.7" stroke="#D1D5DB" stroke-width="1.5" stroke-linecap="round" stroke-linejoin="round"/>
<path d="M15 8.30005V19.3" stroke="#D1D5DB" stroke-width="1.5" stroke-linecap="round" stroke-linejoin="round"/>
</svg>
