<svg width="24" height="24" viewBox="0 0 24 24" fill="none" xmlns="http://www.w3.org/2000/svg">
<path d="M19 10H20.6C20.7061 10 20.8078 9.95786 20.8828 9.88284C20.9579 9.80783 21 9.70609 21 9.6V8C21 7.20435 20.6839 6.44129 20.1213 5.87868C19.5587 5.31607 18.7956 5 18 5H15.05C14.9704 5 14.8941 5.03161 14.8379 5.08787C14.7816 5.14413 14.75 5.22044 14.75 5.3V8C14.75 8.19891 14.671 8.38968 14.5303 8.53033C14.3897 8.67098 14.1989 8.75 14 8.75C13.8011 8.75 13.6103 8.67098 13.4697 8.53033C13.329 8.38968 13.25 8.19891 13.25 8V5.3C13.251 5.22839 13.2263 5.15878 13.1805 5.10375C13.1346 5.04873 13.0706 5.01193 13 5H6C5.20435 5 4.44129 5.31607 3.87868 5.87868C3.31607 6.44129 3 7.20435 3 8V9.6C3 9.70609 3.04214 9.80783 3.11716 9.88284C3.19217 9.95786 3.29391 10 3.4 10H5C5.52815 9.99958 6.03502 10.2081 6.41 10.58C6.61614 10.7834 6.77566 11.0291 6.87752 11.3002C6.97939 11.5712 7.02118 11.8612 7 12.15C6.94964 12.6653 6.70616 13.1425 6.31847 13.4856C5.93078 13.8288 5.4276 14.0126 4.91 14H3.4C3.29391 14 3.19217 14.0421 3.11716 14.1172C3.04214 14.1922 3 14.2939 3 14.4V16C3 16.7956 3.31607 17.5587 3.87868 18.1213C4.44129 18.6839 5.20435 19 6 19H13C13.0398 19.0014 13.0794 18.9946 13.1164 18.98C13.1535 18.9654 13.1871 18.9434 13.2152 18.9152C13.2434 18.8871 13.2654 18.8535 13.28 18.8164C13.2946 18.7794 13.3014 18.7398 13.3 18.7V16C13.3 15.8011 13.379 15.6103 13.5197 15.4697C13.6603 15.329 13.8511 15.25 14.05 15.25C14.2489 15.25 14.4397 15.329 14.5803 15.4697C14.721 15.6103 14.8 15.8011 14.8 16V18.7C14.7986 18.7398 14.8054 18.7794 14.82 18.8164C14.8346 18.8535 14.8566 18.8871 14.8848 18.9152C14.9129 18.9434 14.9465 18.9654 14.9836 18.98C15.0206 18.9946 15.0602 19.0014 15.1 19H18C18.7956 19 19.5587 18.6839 20.1213 18.1213C20.6839 17.5587 21 16.7956 21 16V14.4C21 14.2939 20.9579 14.1922 20.8828 14.1172C20.8078 14.0421 20.7061 14 20.6 14H19C18.4696 14 17.9609 13.7893 17.5858 13.4142C17.2107 13.0391 17 12.5304 17 12C17 11.4696 17.2107 10.9609 17.5858 10.5858C17.9609 10.2107 18.4696 10 19 10ZM14.75 13.33C14.75 13.5289 14.671 13.7197 14.5303 13.8603C14.3897 14.001 14.1989 14.08 14 14.08C13.8011 14.08 13.6103 14.001 13.4697 13.8603C13.329 13.7197 13.25 13.5289 13.25 13.33V10.67C13.25 10.4711 13.329 10.2803 13.4697 10.1397C13.6103 9.99902 13.8011 9.92 14 9.92C14.1989 9.92 14.3897 9.99902 14.5303 10.1397C14.671 10.2803 14.75 10.4711 14.75 10.67V13.33Z" fill="#D1D5DB"/>
</svg>
