<svg width="24" height="24" viewBox="0 0 24 24" fill="none" xmlns="http://www.w3.org/2000/svg">
<path d="M16.3 4.25995C16.2194 4.25718 16.141 4.28592 16.0812 4.34006C16.0215 4.3942 15.9852 4.46949 15.98 4.54995C15.9088 5.15716 15.6167 5.71695 15.1594 6.12266C14.702 6.52838 14.1114 6.75165 13.5 6.74995H10.5C9.88522 6.7566 9.28969 6.53555 8.82813 6.12937C8.36656 5.72319 8.07159 5.16061 8.00002 4.54995C7.99486 4.46949 7.95857 4.3942 7.89882 4.34006C7.83908 4.28592 7.7606 4.25718 7.68002 4.25995C6.93745 4.33457 6.24935 4.68329 5.7501 5.23802C5.25084 5.79275 4.97628 6.51365 4.98002 7.25995V18.2599C4.98002 19.0556 5.29609 19.8187 5.8587 20.3813C6.42131 20.9439 7.18437 21.2599 7.98002 21.2599H15.98C16.7757 21.2599 17.5387 20.9439 18.1013 20.3813C18.6639 19.8187 18.98 19.0556 18.98 18.2599V7.25995C18.9843 6.51676 18.7125 5.79845 18.2174 5.2442C17.7222 4.68995 17.039 4.33921 16.3 4.25995ZM15.53 11.5299L11.78 15.2799C11.7108 15.3501 11.6282 15.4056 11.5372 15.4434C11.4462 15.4812 11.3486 15.5004 11.25 15.4999C11.1512 15.5022 11.0531 15.4838 10.9618 15.4459C10.8705 15.408 10.7882 15.3515 10.72 15.2799L9.00002 13.5699C8.92926 13.501 8.87303 13.4186 8.83463 13.3276C8.79623 13.2365 8.77645 13.1387 8.77645 13.0399C8.77645 12.9412 8.79623 12.8434 8.83463 12.7523C8.87303 12.6613 8.92926 12.5789 9.00002 12.5099C9.14064 12.3695 9.33127 12.2906 9.53002 12.2906C9.72877 12.2906 9.91939 12.3695 10.06 12.5099L11.24 13.6899L14.46 10.4699C14.6022 10.3375 14.7902 10.2653 14.9845 10.2688C15.1788 10.2722 15.3642 10.3509 15.5016 10.4883C15.6391 10.6257 15.7178 10.8111 15.7212 11.0054C15.7246 11.1997 15.6525 11.3878 15.52 11.5299H15.53Z" fill="white"/>
<path d="M10.5 5.75H13.5C13.8978 5.75 14.2794 5.59196 14.5607 5.31066C14.842 5.02936 15 4.64782 15 4.25C15 3.85218 14.842 3.47064 14.5607 3.18934C14.2794 2.90804 13.8978 2.75 13.5 2.75H10.5C10.1022 2.75 9.72064 2.90804 9.43934 3.18934C9.15804 3.47064 9 3.85218 9 4.25C9 4.64782 9.15804 5.02936 9.43934 5.31066C9.72064 5.59196 10.1022 5.75 10.5 5.75Z" fill="white"/>
</svg>
