<svg width="24" height="24" viewBox="0 0 24 24" fill="none" xmlns="http://www.w3.org/2000/svg">
<path d="M12 21C16.9706 21 21 16.9706 21 12C21 7.02944 16.9706 3 12 3C7.02944 3 3 7.02944 3 12C3 16.9706 7.02944 21 12 21Z" stroke="#D1D5DB" stroke-width="1.5" stroke-linecap="round" stroke-linejoin="round"/>
<path d="M11.9999 11.8099C13.5519 11.8099 14.8099 10.5519 14.8099 8.99994C14.8099 7.44802 13.5519 6.18994 11.9999 6.18994C10.448 6.18994 9.18994 7.44802 9.18994 8.99994C9.18994 10.5519 10.448 11.8099 11.9999 11.8099Z" stroke="#D1D5DB" stroke-width="1.5" stroke-linecap="round" stroke-linejoin="round"/>
<path d="M5.90991 17.8099C6.60448 16.8436 7.51903 16.0565 8.57798 15.5135C9.63693 14.9706 10.8099 14.6874 11.9999 14.6874C13.1899 14.6874 14.3629 14.9706 15.4218 15.5135C16.4808 16.0565 17.3953 16.8436 18.0899 17.8099" stroke="#D1D5DB" stroke-width="1.5" stroke-linecap="round" stroke-linejoin="round"/>
</svg>
