<svg width="20" height="21" viewBox="0 0 20 21" fill="none" xmlns="http://www.w3.org/2000/svg">
<path d="M5.39147 3.87477L4.16647 5.11644C3.8359 5.44347 3.57347 5.83281 3.39437 6.26194C3.21527 6.69106 3.12305 7.15144 3.12305 7.61644C3.12305 8.08144 3.21527 8.54182 3.39437 8.97094C3.57347 9.40007 3.8359 9.78941 4.16647 10.1164L10.3915 16.3331C10.7185 16.6637 11.1078 16.9261 11.537 17.1052C11.9661 17.2843 12.4265 17.3765 12.8915 17.3765C13.3565 17.3765 13.8168 17.2843 14.246 17.1052C14.6751 16.9261 15.0644 16.6637 15.3915 16.3331L16.6665 15.1081C16.7535 15.0263 16.8228 14.9275 16.8703 14.8179C16.9177 14.7082 16.9421 14.5901 16.9421 14.4706C16.9421 14.3512 16.9177 14.233 16.8703 14.1233C16.8228 14.0137 16.7535 13.9149 16.6665 13.8331L14.7998 11.9581C14.633 11.7942 14.4086 11.7024 14.1748 11.7024C13.941 11.7024 13.7166 11.7942 13.5498 11.9581L12.9248 12.5831C12.758 12.747 12.5336 12.8388 12.2998 12.8388C12.066 12.8388 11.8416 12.747 11.6748 12.5831L7.89147 8.83311C7.72759 8.66635 7.63576 8.44191 7.63576 8.20811C7.63576 7.97431 7.72759 7.74986 7.89147 7.58311L8.51647 6.95811C8.68035 6.79135 8.77218 6.56691 8.77218 6.33311C8.77218 6.09931 8.68035 5.87486 8.51647 5.70811L6.66647 3.87477C6.58465 3.78775 6.48588 3.71839 6.37624 3.67099C6.2666 3.62358 6.14842 3.59912 6.02897 3.59912C5.90952 3.59912 5.79133 3.62358 5.6817 3.67099C5.57206 3.71839 5.47329 3.78775 5.39147 3.87477Z" stroke="#1F2937" stroke-width="1.5" stroke-linecap="round" stroke-linejoin="round"/>
</svg>
