<svg width="24" height="24" viewBox="0 0 24 24" fill="none" xmlns="http://www.w3.org/2000/svg">
<path d="M18 10.41V17C18 17.7956 17.6839 18.5587 17.1213 19.1213C16.5587 19.6839 15.7956 20 15 20H9C8.20435 20 7.44129 19.6839 6.87868 19.1213C6.31607 18.5587 6 17.7956 6 17V7C6 6.20435 6.31607 5.44129 6.87868 4.87868C7.44129 4.31607 8.20435 4 9 4H11.59C11.8523 4.0011 12.1037 4.10526 12.29 4.29L17.71 9.71C17.8947 9.89626 17.9989 10.1477 18 10.41Z" stroke="#D1D5DB" stroke-width="1.5" stroke-miterlimit="10" stroke-linecap="round"/>
<path d="M12 4.48003V9.00003C12 9.26524 12.1054 9.5196 12.2929 9.70713C12.4804 9.89467 12.7348 10 13 10H17.52C17.5591 9.99948 17.5973 9.98745 17.6296 9.96544C17.662 9.94343 17.6872 9.9124 17.7021 9.8762C17.717 9.84 17.721 9.80022 17.7135 9.76179C17.706 9.72337 17.6874 9.68798 17.66 9.66003L12.34 4.34003C12.312 4.31262 12.2767 4.29402 12.2382 4.28653C12.1998 4.27904 12.16 4.283 12.1238 4.2979C12.0876 4.31281 12.0566 4.33801 12.0346 4.37038C12.0126 4.40276 12.0005 4.44088 12 4.48003Z" stroke="#D1D5DB" stroke-width="1.5" stroke-linecap="round" stroke-linejoin="round"/>
<path d="M14.5 17H9.5" stroke="#D1D5DB" stroke-width="1.5" stroke-linecap="round" stroke-linejoin="round"/>
<path d="M12.5 14H9.5" stroke="#D1D5DB" stroke-width="1.5" stroke-linecap="round" stroke-linejoin="round"/>
</svg>
