<svg width="24" height="24" viewBox="0 0 24 24" fill="none" xmlns="http://www.w3.org/2000/svg">
<path d="M12 2.25C10.0716 2.25 8.18657 2.82183 6.58319 3.89317C4.97982 4.96452 3.73013 6.48726 2.99218 8.26884C2.25422 10.0504 2.06114 12.0108 2.43735 13.9021C2.81355 15.7934 3.74215 17.5307 5.10571 18.8943C6.46928 20.2579 8.20656 21.1865 10.0979 21.5627C11.9892 21.9389 13.9496 21.7458 15.7312 21.0078C17.5127 20.2699 19.0355 19.0202 20.1068 17.4168C21.1782 15.8134 21.75 13.9284 21.75 12C21.7474 9.41495 20.7193 6.93654 18.8914 5.10863C17.0635 3.28073 14.5851 2.25265 12 2.25ZM18 17.67C17.3026 16.7367 16.3972 15.979 15.3556 15.457C14.314 14.9351 13.165 14.6633 12 14.6633C10.835 14.6633 9.68599 14.9351 8.64441 15.457C7.60283 15.979 6.69737 16.7367 6 17.67C4.89405 16.4981 4.15548 15.028 3.8755 13.4411C3.59551 11.8543 3.78636 10.2202 4.42448 8.74052C5.0626 7.26089 6.12006 6.00053 7.4663 5.11502C8.81255 4.22951 10.3886 3.75762 12 3.75762C13.6114 3.75762 15.1875 4.22951 16.5337 5.11502C17.88 6.00053 18.9374 7.26089 19.5755 8.74052C20.2136 10.2202 20.4045 11.8543 20.1245 13.4411C19.8445 15.028 19.106 16.4981 18 17.67Z" fill="#363CD5"/>
<path d="M11.9999 6.18996C11.4442 6.18996 10.9009 6.35476 10.4388 6.66353C9.97669 6.9723 9.61652 7.41116 9.40384 7.92462C9.19116 8.43808 9.13551 9.00308 9.24394 9.54816C9.35236 10.0932 9.61999 10.5939 10.013 10.9869C10.406 11.3799 10.9067 11.6475 11.4517 11.756C11.9968 11.8644 12.5618 11.8087 13.0753 11.5961C13.5887 11.3834 14.0276 11.0232 14.3364 10.5611C14.6451 10.099 14.8099 9.55572 14.8099 8.99996C14.8113 8.63057 14.7395 8.26458 14.5987 7.92306C14.458 7.58154 14.2511 7.27124 13.9899 7.01004C13.7287 6.74885 13.4184 6.54191 13.0768 6.40117C12.7353 6.26042 12.3693 6.18864 11.9999 6.18996Z" fill="#363CD5"/>
</svg>
